<svg xmlns="http://www.w3.org/2000/svg" width="1440" height="900" viewBox="0 0 1440 900" role="img" aria-labelledby="title desc">
  <title id="title">Admin dashboard background</title>
  <desc id="desc">Subtle generated background for admin dashboard screens.</desc>
  <defs>
    <linearGradient id="base" x1="0" x2="1" y1="0" y2="1">
      <stop offset="0" stop-color="#f8f9ff"/>
      <stop offset="1" stop-color="#eef2ff"/>
    </linearGradient>
    <radialGradient id="blue" cx="78%" cy="8%" r="40%">
      <stop offset="0" stop-color="#dbeafe" stop-opacity=".9"/>
      <stop offset="1" stop-color="#dbeafe" stop-opacity="0"/>
    </radialGradient>
    <radialGradient id="violet" cx="24%" cy="92%" r="42%">
      <stop offset="0" stop-color="#eef1ff" stop-opacity=".95"/>
      <stop offset="1" stop-color="#eef1ff" stop-opacity="0"/>
    </radialGradient>
  </defs>
  <rect width="1440" height="900" fill="url(#base)"/>
  <rect width="1440" height="900" fill="url(#blue)"/>
  <rect width="1440" height="900" fill="url(#violet)"/>
  <g opacity=".22" stroke="#cfd6e6" stroke-width="1">
    <path d="M0 120h1440M0 240h1440M0 360h1440M0 480h1440M0 600h1440M0 720h1440"/>
    <path d="M160 0v900M320 0v900M480 0v900M640 0v900M800 0v900M960 0v900M1120 0v900M1280 0v900"/>
  </g>
  <rect x="1060" y="96" width="240" height="92" rx="28" fill="#635bff" opacity=".08"/>
  <rect x="188" y="674" width="280" height="116" rx="34" fill="#00a7a7" opacity=".07"/>
</svg>
