<svg xmlns="http://www.w3.org/2000/svg" width="1440" height="900" viewBox="0 0 1440 900" role="img" aria-labelledby="title desc">
  <title id="title">Learning background</title>
  <desc id="desc">Soft generated background for learner screens.</desc>
  <defs>
    <radialGradient id="g1" cx="18%" cy="14%" r="48%">
      <stop offset="0" stop-color="#d8fbf4" stop-opacity=".95"/>
      <stop offset="1" stop-color="#d8fbf4" stop-opacity="0"/>
    </radialGradient>
    <radialGradient id="g2" cx="88%" cy="16%" r="42%">
      <stop offset="0" stop-color="#eef1ff" stop-opacity="1"/>
      <stop offset="1" stop-color="#eef1ff" stop-opacity="0"/>
    </radialGradient>
    <radialGradient id="g3" cx="52%" cy="98%" r="50%">
      <stop offset="0" stop-color="#fef3c7" stop-opacity=".72"/>
      <stop offset="1" stop-color="#fef3c7" stop-opacity="0"/>
    </radialGradient>
  </defs>
  <rect width="1440" height="900" fill="#f9fbff"/>
  <rect width="1440" height="900" fill="url(#g1)"/>
  <rect width="1440" height="900" fill="url(#g2)"/>
  <rect width="1440" height="900" fill="url(#g3)"/>
  <path d="M96 180c116-66 238-70 366-12 128 58 234 48 318-30 84-78 206-98 366-60" fill="none" stroke="#635bff" stroke-width="3" stroke-opacity=".08"/>
  <path d="M130 694c174-70 330-70 468 0 138 70 288 58 450-36 94-54 184-72 270-54" fill="none" stroke="#00a7a7" stroke-width="3" stroke-opacity=".1"/>
  <circle cx="1206" cy="278" r="8" fill="#635bff" opacity=".14"/>
  <circle cx="240" cy="610" r="10" fill="#00a7a7" opacity=".14"/>
  <circle cx="748" cy="154" r="6" fill="#ffb020" opacity=".2"/>
</svg>
