<svg xmlns="http://www.w3.org/2000/svg" width="960" height="540" viewBox="0 0 960 540" role="img" aria-labelledby="title desc">
  <title id="title">Safety course dashboard illustration</title>
  <desc id="desc">Generated demo illustration for a course card.</desc>
  <defs>
    <linearGradient id="bg" x1="0" x2="1" y1="0" y2="1">
      <stop offset="0" stop-color="#eef1ff"/>
      <stop offset="1" stop-color="#d8fbf4"/>
    </linearGradient>
  </defs>
  <rect width="960" height="540" rx="42" fill="url(#bg)"/>
  <circle cx="750" cy="120" r="92" fill="#635bff" opacity=".16"/>
  <circle cx="140" cy="430" r="120" fill="#00a7a7" opacity=".16"/>
  <rect x="180" y="120" width="600" height="320" rx="36" fill="#fff" opacity=".92"/>
  <rect x="228" y="172" width="224" height="28" rx="14" fill="#161b2f"/>
  <rect x="228" y="224" width="504" height="18" rx="9" fill="#e6e8f0"/>
  <rect x="228" y="266" width="380" height="18" rx="9" fill="#e6e8f0"/>
  <rect x="228" y="336" width="300" height="22" rx="11" fill="#635bff"/>
  <path d="M650 162l70 30v70c0 66-42 116-70 130-28-14-70-64-70-130v-70z" fill="#16a34a"/>
  <path d="M622 270l26 26 54-70" fill="none" stroke="#fff" stroke-width="22" stroke-linecap="round" stroke-linejoin="round"/>
</svg>
