<svg xmlns="http://www.w3.org/2000/svg" viewBox="0 0 200 200" width="100%" height="100%">
  <!-- Background -->
  <rect width="200" height="200" rx="40" fill="#FFF5F5" />
  <!-- Hair (Long hair back) -->
  <path d="M50 90c0-40 30-60 50-60s50 20 50 60v50H50V90z" fill="#2D3748" />
  <!-- Ears -->
  <circle cx="55" cy="105" r="9" fill="#FBD38D" />
  <circle cx="145" cy="105" r="9" fill="#FBD38D" />
  <!-- Face -->
  <rect x="60" y="70" width="80" height="80" rx="30" fill="#FEEBC8" />
  <rect x="60" y="65" width="80" height="40" rx="15" fill="#FBD38D" />
  <!-- Hair (Front bangs) -->
  <path d="M55 75c10-15 25-18 45-18s35 3 45 18c-10-8-25-10-45-10s-35 2-45 10z" fill="#2D3748" />
  <path d="M50 85c0-10 10-25 50-25s50 15 50 25c0 0-15-15-50-15s-50 15-50 15z" fill="#1A202C" />
  <!-- Hair Ponytail Ribbon -->
  <circle cx="100" cy="30" r="12" fill="#E53E3E" />
  <!-- Eyes -->
  <circle cx="85" cy="100" r="5" fill="#2D3748" />
  <circle cx="115" cy="100" r="5" fill="#2D3748" />
  <!-- Blush -->
  <circle cx="75" cy="110" r="6" fill="#FED7D7" opacity="0.8" />
  <circle cx="125" cy="110" r="6" fill="#FED7D7" opacity="0.8" />
  <!-- Smile -->
  <path d="M92 118c3 4 13 4 16 0" stroke="#2D3748" stroke-width="4" stroke-linecap="round" fill="none" />
  <!-- Neck -->
  <rect x="90" y="140" width="20" height="20" fill="#FBD38D" />
  <!-- Clothes -->
  <path d="M60 160c0-12 15-18 40-18s40 6 40 18v25H60v-25z" fill="#DD6B20" />
  <path d="M100 142l-12 15h24z" fill="#C05621" />
</svg>
